<svg viewBox="0 0 270 90" fill="none" xmlns="http://www.w3.org/2000/svg">
    <path d="M75.7525 89C73.9392 89 72.4458 88.4133 71.2725 87.24C70.0992 86.0667 69.5125 84.6267 69.5125 82.92V41.32C69.5125 34.7067 68.2325 29.2667 65.6725 25C63.2192 20.7333 59.8058 17.5333 55.4325 15.4C51.1658 13.2667 46.3125 12.2 40.8725 12.2C35.6458 12.2 30.8992 13.2133 26.6325 15.24C22.4725 17.2667 19.1658 20.04 16.7125 23.56C14.2592 27.08 13.0325 31.08 13.0325 35.56V82.92C13.0325 84.7333 12.4458 86.2267 11.2725 87.4C10.2058 88.4667 8.76583 89 6.95249 89C5.03249 89 3.48583 88.4667 2.31249 87.4C1.24583 86.2267 0.712494 84.7333 0.712494 82.92V7.71999C0.712494 5.79999 1.24583 4.30666 2.31249 3.23999C3.48583 2.06665 5.03249 1.47999 6.95249 1.47999C8.76583 1.47999 10.2058 2.06665 11.2725 3.23999C12.4458 4.30666 13.0325 5.79999 13.0325 7.71999V13.1731C15.8952 9.92521 19.3085 7.25417 23.2725 5.15999C28.9258 2.06665 35.2192 0.519989 42.1525 0.519989C49.7258 0.519989 56.4992 2.11999 62.4725 5.31999C68.4458 8.41333 73.1392 13 76.5525 19.08C80.0725 25.16 81.8325 32.5733 81.8325 41.32V82.92C81.8325 84.6267 81.2458 86.0667 80.0725 87.24C78.8992 88.4133 77.4592 89 75.7525 89Z" fill="white"/>
    <path fill-rule="evenodd" clip-rule="evenodd" d="M148.674 89.8C140.034 89.8 132.354 87.9333 125.634 84.2C119.02 80.36 113.794 75.08 109.954 68.36C106.22 61.64 104.354 53.96 104.354 45.32C104.354 36.5733 106.114 28.8933 109.634 22.28C113.26 15.56 118.22 10.28 124.514 6.43999C130.807 2.59999 138.06 0.679987 146.274 0.679987C154.38 0.679987 161.42 2.54665 167.394 6.27999C173.474 9.90666 178.167 14.9733 181.474 21.48C184.78 27.9867 186.434 35.4 186.434 43.72C186.434 45.4267 185.9 46.8133 184.834 47.88C183.767 48.84 182.38 49.32 180.674 49.32H116.057C116.517 54.2127 117.843 58.6394 120.034 62.6C122.914 67.6133 126.807 71.56 131.714 74.44C136.62 77.32 142.274 78.76 148.674 78.76C152.514 78.76 156.354 78.12 160.194 76.84C164.14 75.4533 167.287 73.7467 169.634 71.72C170.807 70.76 172.14 70.28 173.634 70.28C175.127 70.1733 176.407 70.5467 177.474 71.4C178.86 72.68 179.554 74.0667 179.554 75.56C179.66 77.0533 179.074 78.3333 177.794 79.4C174.274 82.3867 169.794 84.8933 164.354 86.92C158.914 88.84 153.687 89.8 148.674 89.8ZM119.554 28.04C117.916 31.3872 116.825 35.0672 116.28 39.08H174.883C174.471 34.8503 173.415 30.957 171.714 27.4C169.367 22.4933 166.007 18.6533 161.634 15.88C157.367 13.1067 152.247 11.72 146.274 11.72C140.194 11.72 134.86 13.16 130.274 16.04C125.687 18.92 122.114 22.92 119.554 28.04Z" fill="white"/>
    <path d="M260.351 88.36C261.205 88.7867 262.271 89 263.551 89C264.725 89 265.845 88.5733 266.911 87.72C268.085 86.8667 268.778 85.6933 268.991 84.2C269.205 82.7067 268.618 81.1067 267.231 79.4L239.965 44.5114L266.591 11.56C267.658 10.1733 268.191 8.73333 268.191 7.23999C268.298 5.63999 267.871 4.30666 266.911 3.23999C265.951 2.06665 264.565 1.47999 262.751 1.47999C261.791 1.47999 260.831 1.69332 259.871 2.11999C259.018 2.54665 258.218 3.29332 257.471 4.35999L232.109 36.4661L206.271 3.39999C204.991 2.11999 203.445 1.47999 201.631 1.47999C199.818 1.47999 198.431 2.06665 197.471 3.23999C196.511 4.30666 195.978 5.58666 195.871 7.07999C195.871 8.57332 196.458 10.0133 197.631 11.4L223.836 44.6835L196.191 79.24C195.018 80.6267 194.431 82.0667 194.431 83.56C194.538 85.0533 195.071 86.3333 196.031 87.4C197.098 88.4667 198.485 89 200.191 89C202.111 89 203.551 88.36 204.511 87.08L231.642 52.6629L257.951 86.12C258.805 87.1867 259.605 87.9333 260.351 88.36Z" fill="white"/>

    <style>
        path { fill: #000; }
        @media (prefers-color-scheme: dark) {
            path { fill: #FFF; }
        }
    </style>
</svg>
